<svg width="400" height="200" viewBox="0 0 400 200" fill="none" xmlns="http://www.w3.org/2000/svg">
  <!-- Ícone original da Imob com prédios -->
  <g transform="translate(40, 100)">
    <!-- Prédio 1 -->
    <rect x="0" y="-15" width="20" height="40" fill="#ff6b35" rx="1"/>
    <rect x="3" y="-10" width="3" height="3" fill="#ff8c42"/>
    <rect x="8" y="-10" width="3" height="3" fill="#ff8c42"/>
    <rect x="14" y="-10" width="3" height="3" fill="#ff8c42"/>
    <rect x="3" y="-4" width="3" height="3" fill="#ff8c42"/>
    <rect x="8" y="-4" width="3" height="3" fill="#ff8c42"/>
    <rect x="14" y="-4" width="3" height="3" fill="#ff8c42"/>
    <rect x="3" y="2" width="3" height="3" fill="#ff8c42"/>
    <rect x="8" y="2" width="3" height="3" fill="#ff8c42"/>
    <rect x="14" y="2" width="3" height="3" fill="#ff8c42"/>
    <rect x="3" y="8" width="3" height="3" fill="#ff8c42"/>
    <rect x="8" y="8" width="3" height="3" fill="#ff8c42"/>
    <rect x="14" y="8" width="3" height="3" fill="#ff8c42"/>
    <rect x="3" y="14" width="3" height="3" fill="#ff8c42"/>
    <rect x="8" y="14" width="3" height="3" fill="#ff8c42"/>
    <rect x="14" y="14" width="3" height="3" fill="#ff8c42"/>
    <rect x="0" y="20" width="20" height="5" fill="#e63900"/>
    
    <!-- Prédio 2 (mais alto) -->
    <rect x="25" y="-25" width="18" height="50" fill="#ff4500" rx="1"/>
    <rect x="28" y="-20" width="3" height="3" fill="#ff6b35"/>
    <rect x="33" y="-20" width="3" height="3" fill="#ff6b35"/>
    <rect x="38" y="-20" width="3" height="3" fill="#ff6b35"/>
    <rect x="28" y="-14" width="3" height="3" fill="#ff6b35"/>
    <rect x="33" y="-14" width="3" height="3" fill="#ff6b35"/>
    <rect x="38" y="-14" width="3" height="3" fill="#ff6b35"/>
    <rect x="28" y="-8" width="3" height="3" fill="#ff6b35"/>
    <rect x="33" y="-8" width="3" height="3" fill="#ff6b35"/>
    <rect x="38" y="-8" width="3" height="3" fill="#ff6b35"/>
    <rect x="28" y="-2" width="3" height="3" fill="#ff6b35"/>
    <rect x="33" y="-2" width="3" height="3" fill="#ff6b35"/>
    <rect x="38" y="-2" width="3" height="3" fill="#ff6b35"/>
    <rect x="28" y="4" width="3" height="3" fill="#ff6b35"/>
    <rect x="33" y="4" width="3" height="3" fill="#ff6b35"/>
    <rect x="38" y="4" width="3" height="3" fill="#ff6b35"/>
    <rect x="28" y="10" width="3" height="3" fill="#ff6b35"/>
    <rect x="33" y="10" width="3" height="3" fill="#ff6b35"/>
    <rect x="38" y="10" width="3" height="3" fill="#ff6b35"/>
    <rect x="28" y="16" width="3" height="3" fill="#ff6b35"/>
    <rect x="33" y="16" width="3" height="3" fill="#ff6b35"/>
    <rect x="38" y="16" width="3" height="3" fill="#ff6b35"/>
    <rect x="25" y="20" width="18" height="5" fill="#e63900"/>
    
    <!-- Prédio 3 -->
    <rect x="48" y="-10" width="16" height="35" fill="#ff8c42" rx="1"/>
    <rect x="51" y="-5" width="2.5" height="2.5" fill="#ffaa66"/>
    <rect x="55" y="-5" width="2.5" height="2.5" fill="#ffaa66"/>
    <rect x="59" y="-5" width="2.5" height="2.5" fill="#ffaa66"/>
    <rect x="51" y="0" width="2.5" height="2.5" fill="#ffaa66"/>
    <rect x="55" y="0" width="2.5" height="2.5" fill="#ffaa66"/>
    <rect x="59" y="0" width="2.5" height="2.5" fill="#ffaa66"/>
    <rect x="51" y="5" width="2.5" height="2.5" fill="#ffaa66"/>
    <rect x="55" y="5" width="2.5" height="2.5" fill="#ffaa66"/>
    <rect x="59" y="5" width="2.5" height="2.5" fill="#ffaa66"/>
    <rect x="51" y="10" width="2.5" height="2.5" fill="#ffaa66"/>
    <rect x="55" y="10" width="2.5" height="2.5" fill="#ffaa66"/>
    <rect x="59" y="10" width="2.5" height="2.5" fill="#ffaa66"/>
    <rect x="51" y="15" width="2.5" height="2.5" fill="#ffaa66"/>
    <rect x="55" y="15" width="2.5" height="2.5" fill="#ffaa66"/>
    <rect x="59" y="15" width="2.5" height="2.5" fill="#ffaa66"/>
    <rect x="48" y="20" width="16" height="5" fill="#e63900"/>
  </g>
  
  <!-- Texto Imob -->
  <text x="140" y="120" font-family="Arial, sans-serif" font-size="48" font-weight="900" fill="#000000">Imob</text>
  
  <!-- Texto Empreendimentos -->
  <text x="140" y="140" font-family="Arial, sans-serif" font-size="10" font-weight="500" fill="#000000" letter-spacing="3px">EMPREENDIMENTOS</text>
</svg>
